<?xml version="1.0" encoding="UTF-8" standalone="no"?>
<svg
   version="1.1"
   width="521.06458"
   height="443.54587"
   id="svg37"
   viewBox="0 0 521.06457 443.54587"
   sodipodi:docname="ca5731642460ef1590c467f3191b8bbf.cdr"
   xmlns:inkscape="http://www.inkscape.org/namespaces/inkscape"
   xmlns:sodipodi="http://sodipodi.sourceforge.net/DTD/sodipodi-0.dtd"
   xmlns="http://www.w3.org/2000/svg"
   xmlns:svg="http://www.w3.org/2000/svg">
  <defs
     id="defs41" />
  <sodipodi:namedview
     id="namedview39"
     pagecolor="#ffffff"
     bordercolor="#666666"
     borderopacity="1.0"
     inkscape:pageshadow="2"
     inkscape:pageopacity="0.0"
     inkscape:pagecheckerboard="0" />
  <g
     id="Layer1000"
     transform="translate(-41.7892,-15.1415)">
    <path
       d="m 331.3085,351.7918 48.1593,0.0962 c 0.6069,-3.8859 0.7404,-8.6042 1.0796,-12.4722 1.0537,-12.0045 1.8583,-25.5789 3.3414,-37.1354 0.9975,-7.7711 2.4463,-15.5503 3.751,-23.2288 0.6882,-4.0493 3.2599,-20.8979 3.9476,-23.2632 l 19.8378,7.8335 -7.9423,88.2466 52.2499,0.0177 c 1.4965,-9.4726 2.5248,-19.065 3.8719,-28.341 1.3522,-9.3104 2.7821,-18.6008 4.2995,-27.7926 2.369,-14.3512 6.2157,-39.5651 12.3801,-51.7777 5.381,-10.6598 19.4901,-27.2945 27.1735,-36.9899 1.1314,-1.4286 27.7295,-34.1858 28.4368,-35.836 l -56.1891,-41.0675 c -1.2274,-0.8958 -2.6718,-2.2031 -3.9503,-2.7773 l -48.1597,84.0346 c -1.5379,-0.3671 -19.0056,-7.376 -19.8549,-8.0186 0.5057,-1.7735 1.6364,-3.9641 2.4107,-5.7598 0.8734,-2.0253 1.678,-3.8454 2.5358,-5.8226 1.6384,-3.7757 3.3471,-7.6257 4.9853,-11.4584 l 27.4487,-63.136 c 0.7895,-1.8285 2.0822,-4.2995 2.5023,-6.1377 L 379.4162,87.0364 c -1.2962,4.9826 -3.0884,10.185 -4.5533,15.058 l -13.4163,45.6202 c -5.836,20.5105 -11.9627,41.1569 -16.3945,62.3496 -3.4564,16.527 -18.4762,131.3832 -13.7436,141.7276 z"
       style="fill:#040b0a;fill-rule:evenodd"
       id="path2" />
    <path
       d="m 41.7892,244.8711 v 13.672 c 1.4587,3.5938 -2.3331,21.8093 13.6186,46.0052 8.2496,12.5144 17.9445,21.2379 29.5433,30.0345 8.1037,6.1453 18.3036,12.1222 27.9422,16.5402 2.8905,1.3245 10.7355,0.7664 14.35,0.7664 9.8841,0 19.7685,0 29.6527,0 9.6926,0 20.183,0.3834 29.7751,-0.0239 l 0.1114,-56.0897 c -11.5318,-0.3979 -26.8241,-0.0246 -39.0519,-0.0246 l -12.1397,0.0106 c -0.7178,-0.1349 -0.3896,0.0276 -0.7558,-0.4216 -0.1454,-3.6417 -0.429,-25.5843 0.1273,-27.6715 8.622,-0.8017 17.363,-1.3989 25.987,-2.0123 4.3713,-0.3111 8.7014,-0.6623 13.1093,-1.0069 0.9505,-0.0741 11.912,-0.7063 12.8119,-1.2018 l 12.1049,-55.9647 -64.1383,11.9279 -0.0228,-27.9649 72.0931,-32.4316 c 0.4978,-1.301 5.7416,-50.4156 6.082,-53.5499 0.3211,-2.9537 0.6566,-6.0028 0.9924,-8.9379 0.3126,-2.7315 0.9968,-6.7808 0.9618,-9.3914 -2.5333,0.5431 -5.2677,1.5818 -7.9458,2.3853 l -39.377,12.0989 c -11.7413,3.5411 -18.2337,7.4822 -28.6458,12.6059 -4.3915,2.1609 -9.2687,4.8468 -13.4361,7.3196 -9.3937,5.5743 -19.5121,11.6533 -27.7076,18.927 -0.8783,0.7796 -1.8171,1.6277 -2.754,2.3731 -5.3184,4.2321 -8.6386,8.9682 -12.5889,13.0198 -4.7147,4.8357 -16.9717,20.6806 -20.6687,26.2413 -11.1117,16.7142 -17.1468,32.7252 -19.2207,53.0328 -0.2032,1.9892 -0.299,8.4995 -0.8099,9.7322 z"
       style="fill:#040b0a;fill-rule:evenodd"
       id="path4" />
    <path
       d="m 222.9519,87.1119 -0.0152,68.1865 71.9925,-15.9169 c -0.5735,1.5807 -13.0432,22.4346 -14.0317,24.0392 -2.401,3.8965 -4.6981,7.8993 -7.0045,11.866 -2.3303,4.0076 -4.7257,7.9759 -7.0991,12.0414 -18.637,31.9286 -37.8401,63.7689 -56.409,95.639 -9.4717,16.2562 -7.4469,8.3709 -7.4469,30.6187 0,6.38 0,12.7606 0,19.1411 0,6.1851 -0.2819,13.0625 0.0412,19.1625 h 120.3157 c 0.6573,-9.7136 -0.4491,-19.8919 0.4347,-29.6768 0.4154,-4.5989 3.6767,-24.9198 3.4624,-26.5857 l -51.8007,-4e-4 c 0.6173,-1.9789 24.1007,-49.801 24.8689,-51.3731 l 49.8281,-102.2173 c 2.0357,-4.2307 3.7633,-8.9116 5.4401,-13.4322 1.7087,-4.6065 3.4919,-9.2342 5.323,-13.8202 l 10.5776,-27.669 c -9.2043,-0.9593 -26.7495,-1.2751 -37.1552,-1.9061 -12.3115,-0.7469 -24.8634,-1.3637 -37.1993,-1.8581 -12.3758,-0.4953 -24.68,0.9048 -36.9587,1.5395 -6.1642,0.3193 -12.5005,0.6518 -18.6313,1.0847 -6.1306,0.4332 -12.466,0.5319 -18.5326,1.1372 z"
       style="fill:#040b0a;fill-rule:evenodd"
       id="path6" />
    <path
       d="m 471.1911,324.0998 c 0,5.175 0.4377,9.8163 0.4826,14.5491 0.0416,4.3946 -0.1215,8.8989 0.0313,13.2741 21.2691,1.4891 52.3798,-0.0453 68.6426,-12.8722 2.8666,-2.2608 5.9732,-5.4958 8.1914,-8.2535 2.2622,-2.8125 13.8457,-15.4053 14.3148,-18.9418 -1.516,-0.8445 -3.5098,-2.2571 -4.9582,-3.2696 -1.7229,-1.2041 -3.1867,-2.2665 -4.9135,-3.4451 -6.9734,-4.7594 -22.5453,-16.4417 -27.6524,-23.2986 -5.1511,-6.9164 -11.7141,-42.7125 -13.4092,-54.2547 -1.8166,0.8528 -14.9279,14.7609 -16.9496,17.2815 -5.8058,7.2386 -8.9325,13.133 -12.0579,22.1697 -2.8199,8.1539 -5.7787,17.8723 -7.6616,26.5744 -1.8997,8.7794 -4.0603,21.1391 -4.0603,30.4867 z"
       style="fill:#040b0a;fill-rule:evenodd"
       id="path8" />
    <path
       d="m 212.6468,396.5635 8.9467,-0.008 1.0894,0.0497 6e-4,40.526 -1.0904,0.0377 h -8.9707 l -0.004,-22.4841 0.046,-1.8874 z m -16.916,-22.1532 c -5.621,0.5204 -9.4294,2.9002 -9.9481,8.4821 -0.4919,5.2935 -0.0649,12.7824 -0.0649,18.3121 0,12.3115 0,24.6231 0,36.9347 0,4.9234 -0.8346,13.3686 1.7807,16.5742 3.2824,4.0233 8.4038,3.8482 14.6853,3.8482 7.0993,0 31.7215,0.3427 36.7377,-0.1128 5.6632,-0.5142 9.471,-2.7651 9.7774,-8.4726 0.3098,-5.7755 0.0158,-12.4343 0.0158,-18.3073 0,-12.3116 0,-24.6234 0,-36.9347 0,-23.0337 1.8081,-20.4541 -34.6695,-20.4541 -5.6689,0 -12.9028,-0.3708 -18.3144,0.1302 z"
       style="fill:#040b0a;fill-rule:evenodd"
       id="path10" />
    <path
       d="m 444.7067,458.562 62.1265,-4e-4 0.0955,-21.4871 c -4.2272,0 -31.4483,0.2794 -33.1284,-0.1489 l -0.015,-11.0223 28.4138,-0.1192 0.0258,-20.9667 c -4.4719,-0.0801 -26.182,0.5135 -28.4435,-0.2041 l 0.009,-9.1408 27.6175,-0.0791 c 1.3724,-0.7421 4.1455,-6.5907 4.8357,-8.4902 0.8308,-2.2849 0.6884,-3.6306 0.6875,-6.1881 l -0.424,-6.4857 c -1.3178,-0.7685 -55.2682,-0.2808 -61.8248,-0.2808 z"
       style="fill:#040b0a;fill-rule:evenodd"
       id="path12" />
    <path
       d="m 434.8458,425.7003 0.0819,-20.7853 -28.2393,-0.1056 c -0.4274,-1.2594 -0.3638,-7.9907 -0.058,-9.4299 1.5651,-0.3647 24.7573,-0.226 27.9825,-0.124 1.4329,-1.7388 3.7043,-5.8903 4.5927,-8.5368 0.8462,-2.5214 1.0522,-9.953 0.498,-12.5192 -1.2709,-0.3857 -60.0832,-0.6081 -62.1518,-0.1059 l 0.002,84.3522 62.2623,0.1158 0.0566,-21.4118 -33.2034,-0.0834 -0.0168,-11.1739 z"
       style="fill:#040b0a;fill-rule:evenodd"
       id="path14" />
    <path
       d="m 180.5757,458.5367 0.0893,-21.1434 -37.0822,-0.0295 v -42.0936 l 31.136,-0.006 c 2.2,-6.114 5.9849,-9.327 5.9506,-14.2771 -0.0157,-2.2656 -0.004,-4.5352 -0.004,-6.8015 -8.9127,-0.469 -19.0364,-0.0425 -28.0824,-0.0425 -9.3453,0 -18.6902,0.005 -28.0356,0 -10.77,-0.005 -13.9581,3.2863 -13.9532,14.1207 l 0.002,56.0807 c 0.0359,4.1582 0.6573,8.4733 3.0267,10.9237 2.9453,3.0463 5.3359,3.2988 10.6554,3.2942 9.3449,-0.009 18.6903,-4e-4 28.0354,-4e-4 9.2754,0 19.0488,0.298 28.2623,-0.0249 z"
       style="fill:#040b0a;fill-rule:evenodd"
       id="path16" />
    <path
       d="m 253.6674,458.5247 26.6301,0.0362 0.0824,-27.9687 25.8365,-0.0662 0.0784,-21.7877 -25.876,-0.0168 -0.0401,-12.846 25.1037,-0.0508 c 0.9211,-2.8321 2.6306,-6.547 3.821,-9.3415 1.1439,-2.6852 0.991,-2.5588 0.9876,-5.7681 -0.002,-2.1498 0.1047,-4.5618 -0.0506,-6.6774 l -56.5237,-0.0152 z"
       style="fill:#040b0a;fill-rule:evenodd"
       id="path18" />
    <path
       d="m 315.6342,458.5346 26.5905,0.0237 0.0465,-28.0303 25.8643,-0.002 0.0523,-21.7412 -25.86,-0.0619 -0.0566,-12.8964 25.1557,-0.002 c 1.0007,-2.9218 2.5828,-6.5375 3.8539,-9.3697 1.1459,-2.5531 0.9367,-2.6129 0.9349,-5.7396 -0.001,-2.1618 0.0849,-4.4958 -0.0366,-6.6355 l -56.4903,-0.0578 z"
       style="fill:#040b0a;fill-rule:evenodd"
       id="path20" />
    <path
       d="m 123.7273,100.609 c 4.618,2.1777 8.8231,4.4592 15.3298,3.6857 4.9701,-0.5908 10.7718,-2.6146 14.9986,-4.3706 2.1063,-0.8753 9.9847,-6.2139 11.3824,-7.7626 6.5359,-7.2411 7.0661,-6.1996 12.8715,-15.9752 4.5246,-7.6189 6.2857,-12.5382 7.715,-21.3835 1.8994,-11.7564 0.8322,-17.3022 -4.7136,-27.4155 -0.2812,-0.513 -0.5097,-0.9133 -0.8973,-1.5285 -0.336,-0.5326 -0.5579,-0.9402 -1.143,-1.2152 -1.7544,4.8677 -1.4771,6.239 -4.3059,12.0616 -1.7637,3.63 -4.1851,7.5097 -6.4917,9.9668 -12.7311,13.5622 -15.1689,10.2001 -27.0963,22.2328 -2.7094,2.7333 -5.4174,5.2594 -8.0411,8.4019 -2.5927,3.1052 -4.0776,6.1833 -5.894,10.5574 -1.3379,3.2221 -3.7271,8.9941 -3.7144,12.7449 z"
       style="fill:#040b0a;fill-rule:evenodd"
       id="path22" />
    <path
       d="m 163.8392,15.1415 h -3.9172 c -1.5848,0.7174 -4.9345,1.0636 -6.8473,1.5906 -8.9886,2.4801 -9.6917,3.67 -17.0023,8.3189 -2.4081,1.5314 -6.4081,6.0993 -8.6744,8.3085 -2.3573,2.2983 -8.8825,12.3123 -10.0694,15.2672 -3.1858,7.9294 -4.314,11.0888 -5.3228,20.3066 -0.6488,5.9281 -0.5314,9.7009 1.3786,14.7813 1.2364,3.2882 3.7554,9.2869 5.772,11.2382 0.9068,-1.3142 1.3641,-4.343 1.9931,-6.0947 0.7172,-1.9984 1.5835,-4.1531 2.4461,-5.9179 3.3971,-6.9493 8.7914,-13.5049 14.9231,-17.9699 7.9898,-5.8183 11.1265,-6.2961 18.6454,-14.24 7.6754,-8.1094 9.1693,-7.7108 14.0018,-18.8956 1.0566,-2.446 4.0657,-9.9564 3.6569,-12.7771 -1.6401,-1.0231 -3.0415,-1.6574 -4.92,-2.3545 -1.6753,-0.6223 -4.9333,-1.0635 -6.0636,-1.5616 z"
       style="fill:#040b0a;fill-rule:evenodd"
       id="path24" />
    <path
       d="m 73.234,143.0257 c 6.6954,3.5665 14.2739,-0.2129 19.2599,-3.3036 1.6155,-1.0012 5.6956,-4.7027 6.8326,-6.1092 0.8352,-1.0334 1.7947,-2.5966 2.6571,-3.8145 1.099,-1.5531 1.438,-2.264 2.3945,-4.0744 4.5034,-8.5201 7.0866,-22.5398 2.513,-31.4548 -1.0426,-2.032 -3.9443,-6.6744 -5.6507,-7.5057 -0.3105,6.0311 -2.1648,11.8455 -4.8334,16.1615 -5.0174,8.1134 -11.5666,10.3861 -19.1197,23.2063 -2.1478,3.6457 -4.5736,11.782 -4.0533,16.8944 z"
       style="fill:#040b0a;fill-rule:evenodd"
       id="path26" />
    <path
       d="m 69.7804,139.9757 c 1.0389,-19.0753 12.1674,-22.3959 19.5885,-33.0366 1.5319,-2.1959 2.8256,-3.7993 4.2877,-6.2277 2.3039,-3.8263 4.5856,-11.567 4.1741,-17.096 -7.8374,-2.9077 -13.597,-0.1498 -19.4307,3.4562 -1.2766,0.7892 -5.6265,4.7762 -6.6491,6.0204 -6.5715,7.9964 -10.1074,17.6292 -9.8809,28.8101 0.0923,4.5597 0.5063,7.2194 2.346,10.7292 1.0837,2.0675 4.0444,6.6052 5.5644,7.3444 z"
       style="fill:#040b0a;fill-rule:evenodd"
       id="path28" />
    <path
       d="m 212.6643,412.7971 -0.046,1.8874 0.004,22.4841 h 8.9707 l 1.0904,-0.0377 -6e-4,-40.526 -1.0894,-0.0497 -8.9467,0.008 z"
       style="fill:#ffffff;fill-rule:evenodd"
       id="path30" />
    <path
       d="m 186.6711,351.8655 c 0.7217,-0.4378 0.3919,-1.2838 0.3903,-3.2325 -0.006,-7.9026 0.301,-50.6341 -0.1068,-52.9817 -2.3567,-0.6513 -48.8713,0.3296 -52.1195,-0.3111 0.3662,0.4492 0.038,0.2867 0.7558,0.4216 l 12.1397,-0.0106 c 12.2278,0 27.5201,-0.3733 39.0519,0.0246 z"
       style="fill:#828485;fill-rule:evenodd"
       id="path32" />
    <path
       d="m 434.8458,425.7003 c 0.722,-0.3714 0.4078,-3.1924 0.4078,-4.8154 0,-3.8533 0.215,-13.3254 -0.0584,-16.0079 -1.5835,-0.6009 -24.703,-0.2255 -28.434,-0.2255 v -9.1435 l 27.8517,-0.2525 c -3.2252,-0.102 -26.4174,-0.2407 -27.9825,0.124 -0.3058,1.4392 -0.3694,8.1705 0.058,9.4299 l 28.2393,0.1056 z"
       style="fill:#828485;fill-rule:evenodd"
       id="path34" />
  </g>
</svg>
